{"title":"Sleepers*1996*[DVD9][PAL][ENG, POL]","uid":5901444,"size":6587056128,"categoryP":"video","categoryS":"movies_dvdr","magnet":"?xt=urn:btih:dce5bfd90d5f030eeaf574cee213ebbb20cdd076&amp;dn=Sleepers%2A1996%2A%5BDVD9%5D%5BPAL%5D%5BENG%2C+POL%5D&amp;tr=udp%3A%2F%2Ftracker.openbittorrent.com%3A80&amp;tr=udp%3A%2F%2Fopen.demonii.com%3A1337&amp;tr=udp%3A%2F%2Ftracker.coppersurfer.tk%3A6969&amp;tr=udp%3A%2F%2Fexodus.desync.com%3A6969","seeders":0,"leechers":1,"uploader":"albedo040","files":1,"time":1287689279,"description":"Sleepers*1996*[DVD9][PAL][ENG, POL]\n\nGeneral information:\nCountry: USA\nRelease: 18 October 1996\nGenre: Crime, Drama, Thriller \nDirector: Barry Levinson\nScreenplay: Barry Levinson, Lorenzo Carcaterra (book)\nOriginal Music: John Williams\nCinematography by: Michael Ballhaus\nDuration: 2h 47mn\nLanguage: English, POlish\nSubtitles: Polish\nRating: 8.2/10 - 17469 votes\n\nCast:\nKevin Bacon  ...  Sean Nokes  \nBilly Crudup  ...  Tommy Marcano  \nRobert De Niro  ...  Father Bobby  \nRon Eldard  ...  John Reilly  \nMinnie Driver  ...  Carol Martinez  \nVittorio Gassman  ...  King Benny  \nDustin Hoffman  ...  Danny Snyder  \nTerry Kinney  ...  Ralph Ferguson  \nBruno Kirby  ...  Shakes' Father  \nFrank Medrano  ...  Fat Mancho  \nJason Patric  ...  Lorenzo 'Shakes' Carcaterra  \nJoseph Perrino  ...  Young Lorenzo 'Shakes' Carcaterra (as Joe Perrino)  \nBrad Pitt  ...  Michael Sullivan  \nBrad Renfro  ...  Young Michael Sullivan  \nGeoffrey Wigdor  ...  Young John Reilly  \n\nPlot:\nAfter a prank goes disastrously wrong, a group of boys are sent to a detention center where they are brutalized; over 10 years later, they get their chance for revenge. \n\nSpecifications:\nGeneral\nFormat                           : MPEG-PS\nOverall bit rate                 : 6 198 Kbps\n\nVideo\nFormat                           : MPEG Video\nFormat version                   : Version 2\nFormat profile                   : Main@Main\nFormat settings, BVOP            : Yes\nFormat settings, Matrix          : Default\nFormat settings, GOP             : M=3, N=13\nBit rate mode                    : Variable\nBit rate                         : 4 955 Kbps\nNominal bit rate                 : 8 000 Kbps\nWidth                            : 720 pixels\nHeight                           : 576 pixels\nDisplay aspect ratio             : 16:9\nFrame rate                       : 25.000 fps\nStandard                         : PAL\n\nAudio 1\nFormat                           : AC-3\nFormat/Info                      : Audio Coding 3\nMode extension                   : CM (complete main)\nBit rate mode                    : Constant\nBit rate                         : 448 Kbps\nChannel(s)                       : 6 channels\nChannel positions                : Front: L C R, Side: L R, LFE\nSampling rate                    : 48.0 KHz\nVideo delay                      : -208ms\nStream size                      : 74.0 MiB (7%)\n\nAudio 2\nFormat                           : AC-3\nFormat/Info                      : Audio Coding 3\nMode extension                   : CM (complete main)\nBit rate mode                    : Constant\nBit rate                         : 448 Kbps\nChannel(s)                       : 6 channels\nChannel positions                : Front: L C R, Side: L R, LFE\nSampling rate                    : 48.0 KHz\nVideo delay                      : -208ms\nStream size                      : 74.0 MiB (7%)\n\nText\nFormat                           : RLE\nFormat/Info                      : Run-length encoding\n","torrent":{"xt":"urn:btih:dce5bfd90d5f030eeaf574cee213ebbb20cdd076","amp;dn":"Sleepers%2A1996%2A%5BDVD9%5D%5BPAL%5D%5BENG%2C+POL%5D","amp;tr":["udp%3A%2F%2Ftracker.openbittorrent.com%3A80","udp%3A%2F%2Fopen.demonii.com%3A1337","udp%3A%2F%2Ftracker.coppersurfer.tk%3A6969","udp%3A%2F%2Fexodus.desync.com%3A6969"],"infoHash":"dce5bfd90d5f030eeaf574cee213ebbb20cdd076","infoHashBuffer":{"type":"Buffer","data":[220,229,191,217,13,95,3,14,234,245,116,206,226,19,235,187,32,205,208,118]},"announce":[],"urlList":[]}}